# xmcd
#
# Track frame offsets:
#	150
#	18195
#	41543
#	56926
#	78211
#	101904
#	113162
#	127757
#	138490
#
# Disc length: 2061 seconds
# Revision: 0
# Processed by: cddbd v1.5.2PL0 Copyright (c) Steve Scherf et al.
# Submitted via: dBpowerAMP V12.0
#
DISCID=70080b09
DTITLE=B. B. King - B. B. King In London
DYEAR=1971
DGENRE=Blues
TTITLE0=Caldonia
TTITLE1=Blue Shadows
TTITLE2=Alexis' Boogie
TTITLE3=We Can't Agree
TTITLE4=Ghetto Woman
TTITLE5=Wet Hayshark
TTITLE6=Part-Time Love
TTITLE7=Power Of The Blues
TTITLE8=Ain't Nobody Home
EXTD=
EXTT0=
EXTT1=
EXTT2=
EXTT3=
EXTT4=
EXTT5=
EXTT6=
EXTT7=
EXTT8=
PLAYORDER=
